<?xml version="1.0"?>
<svg version="1.1" xmlns="http://www.w3.org/2000/svg" width="400px" height="200px" style="border: dashed 2px #aaa"><path fill="#7436c9" d="M149.6,105.4l9.2,0l0,3.2l-9.2,0l0,9.8l9.2,0l0.8-4l2.6,0l0,7.2l-20.2,0l0-2.4l3.4-0.8l0-21.6l-3.4-0.8l0-2.2l7.6-0.2l12.2,0l0,6.8l-2.6,0l-1-3.6l-8.6,0l0,8.6z M174.344,103.2l4.8,14l4.4-13.8l-2.8-0.6l0-2.2l9.48-0.2l0,2.4l-2.6,0.4l-5.68,15.84c-2.12,5.56-4.2,12.16-10.8,12.16c-1,0-2.56-0.2-2.56-0.2l0.36-2.8l2,0c2.8,0,4.6-2.64,6.36-6.52l-7.16-18.28l-2.4-0.6l0-2.2l9.4-0.2l0,2.4z M212.768,111.6l-13.8,0c0,4.4,2.36,7.2,5.8,7.2c4,0,6.72-2.2,6.72-2.2l1.4,2.08s-3.72,3.32-8.52,3.32c-6.4,0-9.6-4.2-9.6-10.8c0-6.4,4-11.2,9.8-11.2s8.4,3.4,8.4,9.4c0,1-0.2,2.12-0.2,2.2z M199.128,108.6l9.6,0c0-3-1.16-5.48-4.36-5.48s-5,2.48-5.24,5.48z M243.912,118.4l0-20l-1.2,3l-6.2,12.6l-3.2,0.2l-6.2-13l-1-2.8l0,20l3.8,0.8l0,2.4l-10.8,0l0-2.4l3.4-0.8l0-21.6l-3.4-0.8l0-2.2l9-0.2l7.24,16l7.56-15.8l8.4-0.2l0,2.4l-3.4,0.8l0,21.6l3.4,0.8l0,2.4l-11.2,0l0-2.4z M258.856,106.6l-0.2-5s4.4-1.6,7.8-1.6c4.64,0,7.4,1.6,7.4,6.2l0,12.2l3.2,0.8l0,2.2l-6.2,0.2l-0.84-2.8c-1.36,1.36-3.76,3.2-6.56,3.2c-3.8,0-6-2.2-6-6c0-4.6,3.6-6.2,9.2-6.2l3.2,0l0-3.2c0-2.4-1.4-3.6-3.8-3.6s-4.04,0.6-4.04,0.6l-0.56,3l-2.6,0z M269.856,112.4l-2.8,0c-4,0-5.52,1-5.52,3.4c0,1.8,1.12,3,2.92,3c3,0,5.4-3.2,5.4-3.2l0-3.2z M303.4,102.8l-3.88,0.56s1.08,1.44,1.08,4.04c0,5.4-3.6,7.8-8.8,7.8c-1.8,0-3-0.36-3-0.36l-0.2,3.76l6.2,0c5.2,0,8,2,8,5.8c0,4.4-3.4,7.2-10.4,7.2c-5.6,0-9.6-1.4-9.6-5.8c0-3.6,4.2-5,4.2-5s-2.4-0.2-2.4-2.28c0-1.32,2.08-4.52,2.08-4.52s-3.08-1.4-3.08-6.2c0-5.2,3.6-7.8,8.8-7.8c2.6,0,4,0.76,4,0.76l7-0.16l0,2.2z M292.2,102.8c-3.2,0-4.6,1.6-4.6,4.8c0,2.8,1.4,4.8,4.4,4.8c3.2,0,4.6-1.4,4.6-4.8c0-3-1.4-4.8-4.4-4.8z M293.8,121.6l-4.4,0s-2.6,1.2-2.6,3.6c0,2.8,2.4,3.4,6.2,3.4c4,0,6-1.2,6-3.8s-2-3.2-5.2-3.2z M326.744,111.6l-13.8,0c0,4.4,2.36,7.2,5.8,7.2c4,0,6.72-2.2,6.72-2.2l1.4,2.08s-3.72,3.32-8.52,3.32c-6.4,0-9.6-4.2-9.6-10.8c0-6.4,4-11.2,9.8-11.2s8.4,3.4,8.4,9.4c0,1-0.2,2.12-0.2,2.2z M313.104,108.6l9.6,0c0-3-1.16-5.48-4.36-5.48s-5,2.48-5.24,5.48z"/><path fill="#" d=""/></svg>
